<svg width="425" height="250" viewBox="0 0 425 250" fill="none" xmlns="http://www.w3.org/2000/svg">
<g clip-path="url(#clip0_102_2)">
<rect width="425" height="250" fill="white"/>
<rect width="597" height="250" fill="#77A6F7"/>
<path d="M93.584 154.672C87.536 154.672 82.864 153.136 79.568 150.064C76.304 146.992 74.672 142.08 74.672 135.328C74.672 122.432 80.944 115.984 93.488 115.984C96.528 115.984 99.344 116.352 101.936 117.088C104.56 117.824 106.512 118.64 107.792 119.536V131.536H96.272V128.08C96.272 126.864 96 125.968 95.456 125.392C94.912 124.816 94.096 124.528 93.008 124.528C91.92 124.528 91.104 124.816 90.56 125.392C90.016 125.968 89.744 126.864 89.744 128.08V142.576C89.744 143.792 90.016 144.688 90.56 145.264C91.104 145.84 91.92 146.128 93.008 146.128C94.096 146.128 94.912 145.84 95.456 145.264C96 144.688 96.272 143.792 96.272 142.576V138.688H107.792V151.12C106.48 152.016 104.528 152.832 101.936 153.568C99.376 154.304 96.592 154.672 93.584 154.672ZM141.377 146.128V154H126.209V146.128H128.225V138.256C128.225 137.2 128.001 136.432 127.553 135.952C127.105 135.44 126.433 135.184 125.537 135.184C123.617 135.184 122.657 136.208 122.657 138.256V146.128H124.673V154H109.505V146.128H111.617V124.528H109.505V116.656H122.657V131.056C123.841 129.584 125.121 128.48 126.497 127.744C127.873 127.008 129.473 126.64 131.297 126.64C133.953 126.64 135.937 127.472 137.249 129.136C138.593 130.8 139.265 133.088 139.265 136V146.128H141.377ZM157.231 154.672C152.687 154.672 149.135 153.488 146.575 151.12C144.015 148.72 142.735 145.232 142.735 140.656C142.735 136.08 144.015 132.608 146.575 130.24C149.135 127.84 152.687 126.64 157.231 126.64C161.839 126.64 165.407 127.856 167.935 130.288C170.463 132.688 171.727 136.144 171.727 140.656C171.727 145.232 170.447 148.72 167.887 151.12C165.327 153.488 161.775 154.672 157.231 154.672ZM157.231 146.128C158.159 146.128 158.847 145.888 159.295 145.408C159.775 144.896 160.015 144.112 160.015 143.056V138.256C160.015 137.2 159.775 136.432 159.295 135.952C158.847 135.44 158.159 135.184 157.231 135.184C156.303 135.184 155.599 135.44 155.119 135.952C154.671 136.432 154.447 137.2 154.447 138.256V143.056C154.447 144.112 154.671 144.896 155.119 145.408C155.599 145.888 156.303 146.128 157.231 146.128ZM187.607 154.672C183.031 154.672 179.463 153.488 176.903 151.12C174.343 148.72 173.063 145.232 173.063 140.656C173.063 136.08 174.343 132.608 176.903 130.24C179.463 127.84 183.015 126.64 187.559 126.64C189.767 126.64 191.879 126.944 193.895 127.552C195.911 128.16 197.479 128.848 198.599 129.616V139.12H190.343V138.256C190.343 137.2 190.119 136.432 189.671 135.952C189.223 135.44 188.519 135.184 187.559 135.184C185.703 135.184 184.775 136.208 184.775 138.256V142.384C184.775 144.88 186.199 146.128 189.047 146.128C191.703 146.128 194.791 145.84 198.311 145.264V152.8C197.223 153.28 195.687 153.712 193.703 154.096C191.751 154.48 189.719 154.672 187.607 154.672ZM214.512 154.672C209.968 154.672 206.416 153.488 203.856 151.12C201.296 148.72 200.016 145.232 200.016 140.656C200.016 136.08 201.296 132.608 203.856 130.24C206.416 127.84 209.968 126.64 214.512 126.64C219.12 126.64 222.688 127.856 225.216 130.288C227.744 132.688 229.008 136.144 229.008 140.656C229.008 145.232 227.728 148.72 225.168 151.12C222.608 153.488 219.056 154.672 214.512 154.672ZM214.512 146.128C215.44 146.128 216.128 145.888 216.576 145.408C217.056 144.896 217.296 144.112 217.296 143.056V138.256C217.296 137.2 217.056 136.432 216.576 135.952C216.128 135.44 215.44 135.184 214.512 135.184C213.584 135.184 212.88 135.44 212.4 135.952C211.952 136.432 211.728 137.2 211.728 138.256V143.056C211.728 144.112 211.952 144.896 212.4 145.408C212.88 145.888 213.584 146.128 214.512 146.128ZM269.032 124.528H266.632V146.128H269.032V154H250.888V146.128H253.192V138.208H246.472V146.128H248.776V154H230.632V146.128H233.032V124.528H230.632V116.656H248.776V124.528H246.472V131.824H253.192V124.528H250.888V116.656H269.032V124.528ZM298.832 146.128V154H286.16V150.736C285.456 151.76 284.464 152.672 283.184 153.472C281.936 154.272 280.4 154.672 278.576 154.672C276.176 154.672 274.288 154.032 272.912 152.752C271.536 151.472 270.848 149.664 270.848 147.328C270.848 141.28 275.984 138.176 286.256 138.016C286.16 136.928 285.744 136.192 285.008 135.808C284.272 135.392 283.024 135.184 281.264 135.184C279.824 135.184 278.272 135.344 276.608 135.664C274.976 135.952 273.472 136.352 272.096 136.864V128.032C273.792 127.616 275.632 127.28 277.616 127.024C279.6 126.768 281.536 126.64 283.424 126.64C288.192 126.64 291.6 127.504 293.648 129.232C295.696 130.96 296.72 133.632 296.72 137.248V146.128H298.832ZM286.16 142.768C284.72 142.768 283.6 142.96 282.8 143.344C282.032 143.728 281.648 144.368 281.648 145.264C281.648 145.808 281.808 146.256 282.128 146.608C282.48 146.928 282.96 147.088 283.568 147.088C284.4 147.088 285.04 146.736 285.488 146.032C285.936 145.328 286.16 144.336 286.16 143.056V142.768ZM348.86 146.128V154H333.692V146.128H335.708V138.256C335.708 137.2 335.484 136.432 335.036 135.952C334.588 135.44 333.916 135.184 333.02 135.184C331.1 135.184 330.14 136.208 330.14 138.256V146.128H332.156V154H317.084V146.128H319.1V138.256C319.1 137.2 318.876 136.432 318.428 135.952C317.98 135.44 317.308 135.184 316.412 135.184C314.492 135.184 313.532 136.208 313.532 138.256V146.128H315.548V154H300.38V146.128H302.492V135.184H300.38V127.312H313.532V131.056C315.836 128.112 318.716 126.64 322.172 126.64C324.124 126.64 325.708 127.104 326.924 128.032C328.172 128.928 329.052 130.208 329.564 131.872C330.716 130.208 332.028 128.928 333.5 128.032C335.004 127.136 336.764 126.688 338.78 126.688C341.436 126.688 343.42 127.52 344.732 129.184C346.076 130.848 346.748 133.136 346.748 136.048V146.128H348.86Z" fill="white"/>
<path d="M11.641 55L-23 10H46.282L11.641 55Z" fill="#C9E5FF"/>
<path d="M359.641 55L325 10H394.282L359.641 55Z" fill="#C9E5FF"/>
<path d="M321.641 55L287 10H356.282L321.641 55Z" fill="#C9E5FF"/>
<path d="M285.641 55L251 10H320.282L285.641 55Z" fill="#C9E5FF"/>
<path d="M245.641 55L211 10H280.282L245.641 55Z" fill="#C9E5FF"/>
<path d="M205.641 55L171 10H240.282L205.641 55Z" fill="#C9E5FF"/>
<path d="M165.641 55L131 10H200.282L165.641 55Z" fill="#C9E5FF"/>
<path d="M125.641 55L91 10H160.282L125.641 55Z" fill="#C9E5FF"/>
<path d="M85.641 55L51 10H120.282L85.641 55Z" fill="#C9E5FF"/>
<path d="M45.641 55L11 10H80.282L45.641 55Z" fill="#C9E5FF"/>
<path d="M0.641022 45L-34 0H35.282L0.641022 45Z" fill="white"/>
<path d="M348.641 45L314 0H383.282L348.641 45Z" fill="white"/>
<path d="M310.641 45L276 0H345.282L310.641 45Z" fill="white"/>
<path d="M274.641 45L240 0H309.282L274.641 45Z" fill="white"/>
<path d="M234.641 45L200 0H269.282L234.641 45Z" fill="white"/>
<path d="M194.641 45L160 0H229.282L194.641 45Z" fill="white"/>
<path d="M154.641 45L120 0H189.282L154.641 45Z" fill="white"/>
<path d="M114.641 45L80 0H149.282L114.641 45Z" fill="white"/>
<path d="M74.641 45L40 0H109.282L74.641 45Z" fill="white"/>
<path d="M34.641 45L0 0H69.282L34.641 45Z" fill="white"/>
<path d="M396.641 55L362 10H431.282L396.641 55Z" fill="#C9E5FF"/>
<path d="M744.641 55L710 10H779.282L744.641 55Z" fill="#C9E5FF"/>
<path d="M706.641 55L672 10H741.282L706.641 55Z" fill="#C9E5FF"/>
<path d="M670.641 55L636 10H705.282L670.641 55Z" fill="#C9E5FF"/>
<path d="M630.641 55L596 10H665.282L630.641 55Z" fill="#C9E5FF"/>
<path d="M590.641 55L556 10H625.282L590.641 55Z" fill="#C9E5FF"/>
<path d="M550.641 55L516 10H585.282L550.641 55Z" fill="#C9E5FF"/>
<path d="M510.641 55L476 10H545.282L510.641 55Z" fill="#C9E5FF"/>
<path d="M470.641 55L436 10H505.282L470.641 55Z" fill="#C9E5FF"/>
<path d="M430.641 55L396 10H465.282L430.641 55Z" fill="#C9E5FF"/>
<path d="M385.641 45L351 0H420.282L385.641 45Z" fill="white"/>
<path d="M733.641 45L699 0H768.282L733.641 45Z" fill="white"/>
<path d="M695.641 45L661 0H730.282L695.641 45Z" fill="white"/>
<path d="M659.641 45L625 0H694.282L659.641 45Z" fill="white"/>
<path d="M619.641 45L585 0H654.282L619.641 45Z" fill="white"/>
<path d="M579.641 45L545 0H614.282L579.641 45Z" fill="white"/>
<path d="M539.641 45L505 0H574.282L539.641 45Z" fill="white"/>
<path d="M499.641 45L465 0H534.282L499.641 45Z" fill="white"/>
<path d="M459.641 45L425 0H494.282L459.641 45Z" fill="white"/>
<path d="M419.641 45L385 0H454.282L419.641 45Z" fill="white"/>
</g>
<defs>
<clipPath id="clip0_102_2">
<rect width="425" height="250" fill="white"/>
</clipPath>
</defs>
</svg>
